<svg width="56" height="56" viewBox="0 0 56 56" fill="none" xmlns="http://www.w3.org/2000/svg">
<path d="M28.3044 3.38434L28.4732 0.433044L28.7985 0.452103L30.3572 2.93375L30.2102 2.94056L30.3477 0.540587L30.7397 0.562368L30.5709 3.51367L30.2456 3.49461L28.6951 0.997984L28.8312 0.989816L28.6937 3.40612L28.3057 3.38434H28.3044Z" fill="#06070B"/>
<path d="M31.5674 3.65254L32.0779 0.740723L32.4604 0.807426L32.0125 3.36667L33.2908 3.58992L33.2295 3.94114L31.5687 3.64982L31.5674 3.65254Z" fill="#06070B"/>
<path d="M34.2451 4.17799L34.3268 1.10962L34.7175 1.23077L34.6113 3.92207L34.5201 3.89348L35.9794 1.62011L36.3701 1.74126L36.287 4.43936L36.1918 4.40941L37.6279 2.12923L38.0186 2.25039L36.3524 4.82869L35.9386 4.70073L36.0148 2.01216L36.1128 2.04211L34.6562 4.30323L34.2424 4.17527L34.2451 4.17799Z" fill="#06070B"/>
<path d="M37.8798 5.43445L38.3943 4.87087L37.9682 4.65851L38.118 4.3563L38.6298 4.61086L39.207 3.98466L38.7809 3.7723L38.9307 3.47009L39.4425 3.72466L39.9557 3.16516L40.3002 3.33668L39.7869 3.89618L40.4798 4.24059L40.9931 3.68109L41.3415 3.85398L40.8283 4.41347L41.2544 4.62584L41.1047 4.92804L40.5901 4.67212L40.017 5.29968L40.4431 5.51204L40.2933 5.81425L39.7815 5.55969L39.2669 6.12327L38.9184 5.95038L39.433 5.3868L38.7401 5.04239L38.2255 5.60597L37.8811 5.43445H37.8798ZM38.9783 4.78375L39.6712 5.12816L40.2443 4.5006L39.5514 4.15619L38.9783 4.78375Z" fill="#06070B"/>
<path d="M41.3007 7.3008L42.7219 5.10094L42.2523 4.79737L42.4347 4.51422L43.2351 5.03015L41.6315 7.51316L41.3021 7.29944L41.3007 7.3008Z" fill="#06070B"/>
<path d="M43.5632 8.93981L43.9866 8.40482L42.8485 7.50228L43.0486 7.25044L45.3928 6.61743L45.6855 6.84885L44.4725 8.37895L44.7748 8.61854L44.5746 8.87038L44.2738 8.63079L43.8504 9.16579L43.5646 8.93845L43.5632 8.93981ZM43.1929 7.54175L43.2351 7.39882L44.1867 8.15298L45.1968 6.87744L45.2675 6.97409L43.1929 7.54175Z" fill="#06070B"/>
<path d="M47.285 10.67L47.5491 10.459L49.4562 12.8454L49.1935 13.0564L47.2863 10.67H47.285Z" fill="#06070B"/>
<path d="M49.7844 16.5059L52.4457 15.2181L53.3006 16.9865L52.8718 17.1934L52.251 15.911L51.569 16.2405L52.1544 17.4507L51.7256 17.6576L51.1402 16.4474L50.4473 16.7823L51.0681 18.0646L50.6393 18.2715L49.7844 16.5032V16.5059Z" fill="#06070B"/>
<path d="M50.8434 18.7358L52.5669 19.1618L53.6382 17.7733L53.841 18.3573L52.963 19.494L52.8691 19.2245L54.2617 19.5675L54.4645 20.1515L52.7642 19.7309L51.6752 21.1303L51.4724 20.5463L52.364 19.4001L52.4579 19.6696L51.0463 19.3198L50.8434 18.7358Z" fill="#06070B"/>
<path d="M51.8427 21.781L54.7313 21.152L54.9655 22.2302C55.0077 22.4262 55.0104 22.6086 54.9723 22.7747C54.9342 22.9408 54.8566 23.0824 54.7395 23.1967C54.6224 23.3111 54.4672 23.39 54.2726 23.4322C54.0806 23.4744 53.9091 23.4662 53.7539 23.4091C53.6001 23.3519 53.4694 23.2566 53.3646 23.1218C53.2598 22.9871 53.1863 22.8224 53.1427 22.6263L53.0229 22.0764L51.957 22.3078L51.8427 21.781ZM53.4885 21.9756L53.6096 22.5338C53.63 22.6291 53.6668 22.708 53.7199 22.7693C53.773 22.8305 53.837 22.8741 53.9118 22.8986C53.9881 22.9231 54.0697 22.9258 54.1569 22.9068C54.2481 22.8877 54.3216 22.8509 54.3788 22.7978C54.4359 22.7448 54.4768 22.6794 54.4985 22.6018C54.5203 22.5242 54.5217 22.4371 54.5013 22.3418L54.3801 21.7837L53.4885 21.977V21.9756Z" fill="#06070B"/>
<path d="M52.4048 24.6438L55.3466 24.3497L55.5413 26.3046L55.0675 26.3522L54.926 24.9351L54.1718 25.01L54.3052 26.3481L53.8315 26.3958L53.6981 25.0576L52.9317 25.1338L53.0732 26.551L52.5995 26.5986L52.4048 24.6438Z" fill="#06070B"/>
<path d="M52.6308 27.3432L55.5862 27.3908L55.5685 28.4894C55.5658 28.6909 55.5263 28.8679 55.4514 29.0217C55.3766 29.1755 55.269 29.2939 55.1274 29.3797C54.9872 29.4641 54.8184 29.5049 54.6197 29.5022C54.4155 29.4995 54.2439 29.4478 54.1024 29.3498C53.9608 29.2504 53.8573 29.1183 53.7906 28.9536L52.5941 29.6125L52.6036 29.0013L53.9132 28.2961L53.7008 28.6419L53.713 27.9L52.6226 27.8823L52.6308 27.3432ZM54.1895 27.9081L54.18 28.4758C54.1786 28.5738 54.1963 28.6582 54.2331 28.7304C54.2698 28.8025 54.3229 28.8583 54.391 28.8992C54.459 28.94 54.538 28.9618 54.6278 28.9631C54.7204 28.9645 54.8007 28.9468 54.8688 28.9073C54.9369 28.8692 54.9913 28.8148 55.0308 28.744C55.0703 28.6732 55.0907 28.5888 55.092 28.4908L55.1016 27.9231L54.1895 27.9081Z" fill="#06070B"/>
<path d="M52.4661 30.756L54.9273 31.0555L55.0199 30.2959L55.4923 30.3531L55.2432 32.4005L54.7708 32.3433L54.862 31.5946L52.4008 31.2937L52.4661 30.7547V30.756Z" fill="#06070B"/>
<path d="M52.899 35.3055L53.2162 35.4198L52.1857 38.2963L51.8685 38.1833L52.899 35.3068V35.3055Z" fill="#06070B"/>
<path d="M49.2262 40.5329L51.6983 42.1528L51.52 42.4251L48.5919 42.5353L48.6586 42.4033L50.6692 43.721L50.4541 44.0491L47.982 42.4292L48.1603 42.1569L51.098 42.0616L51.0368 42.1828L49.0125 40.8555L49.2262 40.5302V40.5329Z" fill="#06070B"/>
<path d="M47.3653 43.2228L49.6333 45.1191L49.3841 45.4172L47.3912 43.7496L46.5595 44.7447L46.2858 44.516L47.3681 43.2228H47.3653Z" fill="#06070B"/>
<path d="M45.5711 45.2811L48.1916 46.8806L47.8922 47.1583L45.612 45.7249L45.6814 45.6595L46.9243 48.0568L46.6248 48.3345L44.3269 46.9174L44.3991 46.8493L45.6596 49.2316L45.3601 49.5093L43.9539 46.7799L44.2711 46.4858L46.5635 47.8921L46.4887 47.9628L45.2526 45.5738L45.5698 45.2797L45.5711 45.2811Z" fill="#06070B"/>
<path d="M42.6729 47.8076L42.9057 48.5346L43.3018 48.2705L43.4897 48.5509L43.0146 48.8681L43.2705 49.6794L43.6667 49.414L43.8545 49.6944L43.3794 50.0116L43.6108 50.7358L43.2909 50.9495L43.0595 50.2253L42.417 50.6555L42.6484 51.3797L42.3258 51.5961L42.0944 50.8719L41.6982 51.136L41.5104 50.8556L41.9882 50.5357L41.7282 49.7257L41.332 49.9912L41.1442 49.7107L41.6193 49.3936L41.3865 48.6666L41.7091 48.4502L41.9419 49.1771L42.5844 48.7469L42.3516 48.02L42.6715 47.8063L42.6729 47.8076ZM42.692 49.0845L42.0494 49.5147L42.3094 50.3247L42.952 49.8945L42.692 49.0845Z" fill="#06070B"/>
<path d="M39.3514 49.851L40.5548 52.1761L41.0516 51.9188L41.2068 52.2183L40.3614 52.6552L39.0029 50.0307L39.3514 49.8496V49.851Z" fill="#06070B"/>
<path d="M36.8084 50.9986L37.0616 51.6329L38.4106 51.0938L38.5304 51.392L37.9138 53.7402L37.568 53.8791L36.8438 52.0658L36.4858 52.2087L36.366 51.9106L36.724 51.7677L36.4708 51.1333L36.8098 50.9972L36.8084 50.9986ZM38.2051 51.3715L38.3085 51.4805L37.1814 51.931L37.7844 53.4421L37.666 53.4557L38.2051 51.3729V51.3715Z" fill="#06070B"/>
<path d="M33.4515 53.3644L33.5018 53.698L30.4811 54.1581L30.4307 53.8246L33.4515 53.3644Z" fill="#06070B"/>
<path d="M27.1459 52.6144L26.9377 55.563L24.9788 55.4241L25.0128 54.949L26.434 55.0497L26.4871 54.2942L25.1448 54.1989L25.1789 53.7238L26.5211 53.8191L26.5756 53.0514L25.1544 52.9506L25.1884 52.4755L27.1473 52.6144H27.1459Z" fill="#06070B"/>
<path d="M24.6874 52.4238L23.4609 53.7075L24.1334 55.3274L23.5249 55.2131L22.9749 53.8858L23.2553 53.9389L22.2657 54.9762L21.6572 54.8619L22.8687 53.5959L22.1962 51.9555L22.8047 52.0699L23.3561 53.4121L23.0756 53.359L24.0803 52.3081L24.6888 52.4224L24.6874 52.4238Z" fill="#06070B"/>
<path d="M21.5428 51.7745L20.6525 54.5924L19.6002 54.2602C19.4083 54.199 19.2504 54.1118 19.1238 53.9948C18.9972 53.8777 18.9141 53.7416 18.8733 53.5823C18.8325 53.423 18.8406 53.2501 18.9005 53.0609C18.9591 52.8744 19.0516 52.7288 19.1782 52.6226C19.3048 52.5164 19.4518 52.4524 19.6206 52.4279C19.7894 52.4034 19.9691 52.4211 20.1611 52.4824L20.6988 52.6525L21.0282 51.6125L21.5428 51.7745ZM20.5559 53.1058L20.0113 52.9343C19.9174 52.9044 19.8316 52.8976 19.7513 52.9125C19.6724 52.9275 19.6029 52.9615 19.5444 53.016C19.4859 53.0691 19.4423 53.1399 19.4165 53.2256C19.3879 53.3141 19.3838 53.3958 19.4015 53.472C19.4192 53.5483 19.4559 53.615 19.5131 53.6735C19.5703 53.732 19.6451 53.7756 19.7377 53.8042L20.2822 53.9757L20.5572 53.1058H20.5559Z" fill="#06070B"/>
<path d="M18.7821 50.8406L17.5732 53.5387L15.7804 52.7356L15.9751 52.3013L17.2751 52.8839L17.5855 52.1924L16.3576 51.6424L16.5523 51.2082L17.7801 51.7581L18.0946 51.0557L16.7946 50.4731L16.9892 50.0388L18.7821 50.842V50.8406Z" fill="#06070B"/>
<path d="M16.329 49.6917L14.8166 52.2319L13.8719 51.6696C13.699 51.5662 13.5656 51.445 13.4689 51.3034C13.3737 51.1619 13.3233 51.0094 13.3192 50.8447C13.3151 50.68 13.3641 50.5139 13.4649 50.3424C13.5697 50.1668 13.699 50.0429 13.8556 49.9694C14.0121 49.8959 14.1782 49.8714 14.3538 49.8959L14.3783 48.5291L14.9038 48.8422L14.8643 50.3288L14.6696 49.9735L15.3067 50.3533L15.8648 49.4153L16.329 49.6917ZM15.0644 50.7616L14.577 50.4717C14.4926 50.4213 14.411 50.3955 14.3293 50.3914C14.2476 50.3873 14.1727 50.405 14.1033 50.4445C14.0339 50.4826 13.9767 50.5411 13.9304 50.6187C13.8828 50.6977 13.8596 50.7766 13.8583 50.8556C13.8583 50.9332 13.8787 51.008 13.9209 51.0775C13.9631 51.1469 14.0257 51.2068 14.1101 51.2572L14.5975 51.5471L15.0644 50.763V50.7616Z" fill="#06070B"/>
<path d="M13.454 47.8471L11.9634 49.8291L12.5759 50.2893L12.2901 50.6704L10.6415 49.4303L10.9274 49.0491L11.5305 49.5024L13.0211 47.5204L13.4553 47.8471H13.454Z" fill="#06070B"/>
<path d="M9.29517 45.9481L9.03788 46.1673L7.05719 43.8422L7.31448 43.623L9.29517 45.9481Z" fill="#06070B"/>
<path d="M6.58757 40.1653L3.95346 41.5062L3.80644 41.2162L5.16502 38.6188L5.24533 38.7427L3.10265 39.8331L2.92432 39.4833L5.55843 38.1424L5.70545 38.4324L4.32918 41.0297L4.25431 40.9167L6.41061 39.8195L6.58757 40.1653Z" fill="#06070B"/>
<path d="M5.17861 37.214L2.40564 38.2377L2.27087 37.8729L4.70896 36.9731L4.25973 35.7561L4.59461 35.6322L5.17861 37.214Z" fill="#06070B"/>
<path d="M4.28695 34.633L1.59294 36.1046L1.50173 35.7057L3.88265 34.4451L3.90443 34.5377L1.20633 34.4179L1.11512 34.0191L3.49059 32.7353L3.51237 32.832L0.819723 32.7353L0.728516 32.3365L3.79552 32.4808L3.89218 32.9028L1.53032 34.1879L1.50718 34.0871L4.19439 34.2096L4.29104 34.6316L4.28695 34.633Z" fill="#06070B"/>
<path d="M3.54506 30.8595L2.79907 30.6988L2.83038 31.1739L2.49414 31.1957L2.45602 30.6253L1.62427 30.4416L1.65558 30.9166L1.31934 30.9384L1.28122 30.368L0.539311 30.206L0.513446 29.8222L1.25535 29.9842L1.20363 29.2123L0.461717 29.0503L0.435852 28.6623L1.17776 28.8243L1.14645 28.3492L1.48269 28.3275L1.52081 28.9019L2.35256 29.0816L2.32125 28.6065L2.65749 28.5847L2.69561 29.1551L3.4416 29.3158L3.46747 29.7037L2.72147 29.5431L2.7732 30.315L3.5192 30.4756L3.54506 30.8595ZM2.43016 30.2374L2.37843 29.4655L1.54803 29.2858L1.59976 30.0577L2.43152 30.2374H2.43016Z" fill="#06070B"/>
<path d="M3.43346 26.9593L0.817043 26.8436L0.79254 27.4031L0.456299 27.3881L0.498499 26.4366L3.45116 26.5673L3.43346 26.9593Z" fill="#06070B"/>
<path d="M3.70432 24.1836L3.02912 24.0883L2.82628 25.5259L2.50774 25.481L0.777527 23.778L0.829256 23.4091L2.7623 23.6827L2.81675 23.3015L3.1353 23.3464L3.08085 23.7276L3.75605 23.8229L3.70432 24.185V24.1836ZM2.68607 25.2101L2.54041 25.2455L2.71057 24.0434L1.10015 23.8161L1.1478 23.7072L2.68607 25.2114V25.2101Z" fill="#06070B"/>
<path d="M3.3191 20.0957L3.00464 19.9745L4.10729 17.1253L4.42175 17.2465L3.3191 20.0957Z" fill="#06070B"/>
<path d="M7.10897 15.0003L4.65863 13.3463L5.7572 11.7182L6.15198 11.985L5.35425 13.1653L5.98181 13.59L6.73461 12.4751L7.12939 12.7419L6.37659 13.8568L7.01504 14.287L7.81276 13.1067L8.20754 13.3735L7.10897 15.0017V15.0003Z" fill="#06070B"/>
<path d="M8.50429 12.9665L8.00469 11.2636L6.26495 11.0362L6.6679 10.5666L8.09182 10.7531L7.90532 10.9695L7.50101 9.59324L7.90396 9.1236L8.39539 10.8048L10.1528 11.0417L9.74988 11.5113L8.31099 11.318L8.49749 11.1016L8.90588 12.4969L8.50293 12.9665H8.50429Z" fill="#06070B"/>
<path d="M10.6361 10.5666L8.63635 8.38983L9.44905 7.64384C9.59743 7.50771 9.75262 7.41378 9.91597 7.36341C10.0793 7.31168 10.24 7.30896 10.3979 7.35116C10.5558 7.39336 10.7028 7.48865 10.8362 7.63567C10.9683 7.77997 11.0486 7.93244 11.0785 8.09579C11.1071 8.25779 11.0894 8.41842 11.0268 8.57633C10.9642 8.73424 10.858 8.88126 10.711 9.01739L10.2958 9.39856L11.0336 10.2017L10.6361 10.5666ZM9.97315 9.04734L10.3938 8.66073C10.4659 8.59403 10.5149 8.52324 10.5422 8.44701C10.5694 8.37077 10.5735 8.29318 10.5558 8.21559C10.5381 8.13799 10.5 8.06584 10.4387 8.0005C10.3761 7.93244 10.308 7.88751 10.2332 7.86437C10.1583 7.84123 10.0821 7.83987 10.0031 7.86029C9.92414 7.88071 9.84927 7.92291 9.77712 7.98961L9.35648 8.37622L9.97451 9.0487L9.97315 9.04734Z" fill="#06070B"/>
<path d="M12.8237 8.63626L11.0839 6.24717L12.6712 5.09143L12.9516 5.47668L11.8 6.31524L12.2465 6.92782L13.3342 6.13555L13.6146 6.5208L12.5269 7.31307L12.9802 7.93519L14.1319 7.09663L14.4123 7.48187L12.825 8.63762L12.8237 8.63626Z" fill="#06070B"/>
<path d="M15.0358 7.08024L13.5819 4.50738L14.5389 3.96694C14.7145 3.86757 14.886 3.81175 15.0576 3.7995C15.2277 3.78725 15.3856 3.81992 15.5299 3.89752C15.6742 3.97511 15.7954 4.10035 15.8934 4.27324C15.9941 4.4502 16.0363 4.62445 16.0227 4.79734C16.0091 4.96886 15.9478 5.12541 15.8389 5.26562L17.0137 5.96397L16.4815 6.26482L15.2114 5.49296L15.6171 5.50113L14.9704 5.86596L15.5068 6.81614L15.0371 7.0816L15.0358 7.08024ZM14.7349 5.45076L15.2291 5.17169C15.3148 5.12405 15.3788 5.06551 15.4224 4.99609C15.4659 4.92802 15.4877 4.85315 15.4891 4.77419C15.4891 4.69524 15.4687 4.61628 15.4237 4.53733C15.3788 4.45701 15.3217 4.39711 15.2536 4.35764C15.1855 4.31816 15.112 4.2991 15.0303 4.30182C14.9487 4.30318 14.8656 4.32905 14.7812 4.37669L14.2871 4.65576L14.7363 5.45076H14.7349Z" fill="#06070B"/>
<path d="M18.0688 5.4998L17.09 3.22098L16.3862 3.52319L16.1984 3.08621L18.0933 2.27216L18.2812 2.70913L17.5883 3.00726L18.567 5.28607L18.0674 5.50116L18.0688 5.4998Z" fill="#06070B"/>
<path d="M21.7851 2.8385L21.7239 2.50634L24.7283 1.95093L24.7895 2.28309L21.7851 2.8385Z" fill="#06070B"/>
</svg>
